<?xml version="1.0" standalone="no"?>
<!DOCTYPE svg PUBLIC "-//W3C//DTD SVG 20010904//EN"
 "http://www.w3.org/TR/2001/REC-SVG-20010904/DTD/svg10.dtd">
<svg version="1.0" xmlns="http://www.w3.org/2000/svg"
 width="3200.000000pt" height="3200.000000pt" viewBox="0 0 3200.000000 3200.000000"
 preserveAspectRatio="xMidYMid meet">
<metadata>
Created by potrace 1.16, written by Peter Selinger 2001-2019
</metadata>
<g transform="translate(0.000000,3200.000000) scale(0.100000,-0.100000)"
fill="#000000" stroke="none">
<path d="M6875 22944 c-659 -37 -1092 -123 -1485 -294 -610 -264 -970 -765
-1134 -1575 -63 -312 -86 -558 -93 -980 -6 -381 2 -499 52 -805 109 -665 415
-1627 824 -2592 391 -923 918 -1961 1544 -3043 237 -411 986 -1614 1258 -2022
236 -353 250 -373 286 -382 21 -5 84 -22 141 -36 56 -14 176 -52 264 -85 l162
-60 266 0 266 0 192 113 c280 163 542 368 815 636 l207 205 0 725 0 726 -110
125 c-60 69 -160 197 -222 285 -62 88 -270 360 -462 605 -369 469 -547 707
-953 1276 -918 1284 -1311 1938 -1538 2564 -29 80 -89 240 -133 355 -135 357
-239 684 -286 905 -40 185 -49 303 -37 485 28 413 118 674 295 850 117 115
252 179 430 204 105 15 172 14 318 -5 406 -51 758 -174 1113 -387 261 -157
740 -498 1207 -859 130 -101 710 -550 1290 -999 579 -449 1764 -1356 2633
-2017 869 -660 1632 -1246 1695 -1302 63 -56 330 -266 593 -467 262 -202 477
-369 477 -372 0 -3 -123 -89 -272 -191 -150 -102 -369 -257 -488 -345 -118
-89 -379 -273 -579 -409 -200 -137 -677 -477 -1060 -755 -383 -279 -1002 -722
-1376 -986 -374 -263 -891 -630 -1150 -815 -551 -394 -785 -557 -1066 -744
l-205 -137 -155 -325 c-85 -179 -155 -333 -157 -343 -1 -9 155 -200 379 -461
l382 -445 171 -17 c241 -24 794 -24 1001 -1 l150 16 242 210 c133 115 265 225
292 243 28 19 308 285 623 592 315 306 736 706 936 887 200 182 431 392 515
469 214 195 615 540 1232 1061 292 246 618 523 725 614 205 175 368 303 819
643 l275 206 36 -27 c224 -176 444 -339 944 -700 444 -320 739 -524 1186 -817
327 -215 681 -444 785 -509 745 -463 1529 -846 2072 -1013 758 -234 1335 -215
1898 62 602 297 1148 866 1678 1747 332 552 682 1291 908 1918 309 852 539
1949 621 2956 9 111 13 369 13 835 0 653 -1 680 -23 829 -108 719 -418 1145
-970 1330 -343 115 -847 119 -1292 11 -341 -83 -876 -286 -1430 -543 -240
-111 -783 -381 -1023 -509 -212 -113 -1198 -733 -1537 -966 -372 -255 -2045
-1447 -3417 -2433 l-192 -138 -580 419 c-319 230 -622 447 -673 481 -51 34
-1468 1084 -3148 2333 -2794 2077 -3080 2287 -3350 2460 -1046 670 -1790 1104
-2190 1278 -253 110 -543 197 -775 233 -105 17 -494 28 -650 19z m19020 -4343
c387 -80 715 -398 815 -792 35 -135 44 -282 31 -476 -25 -366 -109 -811 -246
-1299 -43 -152 -422 -1035 -533 -1239 -244 -452 -477 -781 -745 -1054 -318
-323 -625 -505 -987 -586 -117 -26 -396 -31 -561 -10 -566 71 -1344 330 -2369
787 -183 81 -470 228 -1008 513 -413 220 -752 402 -752 405 0 10 522 436 733
598 111 86 303 221 427 301 124 79 482 328 795 551 501 358 672 472 1406 943
460 295 907 586 993 646 347 243 597 388 835 486 211 86 570 194 766 229 116
21 292 20 400 -3z"/>
</g>
</svg>
