<svg version="1.1" id="Layer_1" xmlns="http://www.w3.org/2000/svg" xmlns:xlink="http://www.w3.org/1999/xlink" x="0px" y="0px"
	 width="100%" viewBox="0 0 3200 3200" enable-background="new 0 0 3200 3200" xml:space="preserve">
<path fill="#4C6971" opacity="1.000000" stroke="none" 
	d="
M1498.000000,3202.000000 
	C998.666748,3202.000000 500.333527,3202.000000 2.000201,3202.000000 
	C2.000134,2135.333496 2.000134,1068.667236 2.000067,2.000630 
	C1068.666138,2.000420 2135.332275,2.000420 3201.999023,2.000210 
	C3201.999268,1068.666016 3201.999268,2135.332031 3201.999512,3201.999023 
	C2634.333252,3202.000000 2066.666748,3202.000000 1498.000000,3202.000000 
M980.081970,2061.096436 
	C1001.771240,2045.432983 1020.956543,2026.995850 1039.739502,2008.035034 
	C1045.318970,2002.402832 1047.899902,1996.827637 1047.832397,1988.823242 
	C1047.486450,1947.827271 1047.504761,1906.825439 1047.823975,1865.829102 
	C1047.882935,1858.273193 1045.549927,1852.673706 1040.742065,1847.008057 
	C1030.851074,1835.351685 1021.613586,1823.134155 1012.268127,1811.023438 
	C1005.759399,1802.588867 999.679260,1793.822266 993.129028,1785.421143 
	C972.444214,1758.892090 950.988525,1732.938599 930.989197,1705.905640 
	C881.455872,1638.951538 832.562500,1571.523193 787.541870,1501.394043 
	C764.656372,1465.744873 742.732788,1429.447754 727.080627,1390.003662 
	C712.472046,1353.189453 699.076904,1315.849121 686.506287,1278.285767 
	C677.324402,1250.848389 670.579529,1222.814453 673.423828,1193.135010 
	C675.345398,1173.084351 678.051636,1153.410767 686.043823,1134.869751 
	C696.202271,1111.303223 713.656250,1095.997192 739.083313,1090.693604 
	C750.525757,1088.306885 762.020630,1088.227905 773.788025,1089.501221 
	C811.789001,1093.613037 847.324707,1105.005859 880.455566,1123.878052 
	C914.692139,1143.380005 946.537476,1166.495361 977.750732,1190.381348 
	C1046.524902,1243.010620 1114.713257,1296.405029 1183.430786,1349.109131 
	C1276.998779,1420.873169 1370.901123,1492.201538 1464.529907,1563.886719 
	C1503.656982,1593.843628 1543.491577,1622.849976 1581.304565,1654.565186 
	C1609.862793,1678.518066 1640.175659,1700.378418 1669.686157,1723.197754 
	C1672.459717,1725.342529 1675.079468,1727.685913 1678.414917,1730.476074 
	C1673.574829,1733.981812 1669.857056,1736.757446 1666.056641,1739.414917 
	C1613.373535,1776.256348 1560.416992,1812.713013 1508.048584,1849.996094 
	C1426.913574,1907.759766 1346.383545,1966.373901 1265.208618,2024.081543 
	C1198.965088,2071.174561 1132.187012,2117.516602 1065.523682,2164.016602 
	C1060.640137,2167.422852 1057.246216,2171.435547 1054.812866,2176.717773 
	C1047.149536,2193.353516 1039.792480,2210.159668 1031.325806,2226.382812 
	C1027.365967,2233.970215 1027.785156,2239.395996 1034.121704,2244.727783 
	C1035.124146,2245.571533 1035.822144,2246.771240 1036.688354,2247.782959 
	C1057.260498,2271.806396 1077.840332,2295.822754 1098.407104,2319.850586 
	C1101.708496,2323.707520 1105.069092,2326.478760 1110.885376,2326.671143 
	C1125.486572,2327.153809 1140.040527,2329.006592 1154.641724,2329.559326 
	C1168.621338,2330.088867 1182.652832,2330.088135 1196.631348,2329.544678 
	C1208.233154,2329.093506 1219.809692,2327.673584 1231.354980,2326.320312 
	C1234.130981,2325.994873 1237.214600,2324.808594 1239.349243,2323.042236 
	C1258.319702,2307.345459 1277.436279,2291.799072 1295.849487,2275.463867 
	C1311.034790,2261.992432 1325.559937,2247.748291 1339.964233,2233.430664 
	C1378.000122,2195.623535 1416.621948,2158.450195 1456.681152,2122.776123 
	C1480.046753,2101.968262 1502.792725,2080.454590 1526.415527,2059.947266 
	C1563.120117,2028.083618 1600.424438,1996.911987 1637.310547,1965.255737 
	C1688.120605,1921.649902 1739.637817,1878.937866 1793.946655,1839.703491 
	C1796.575439,1837.804321 1799.334839,1836.085571 1801.909790,1834.365479 
	C1804.264038,1835.909302 1805.979370,1836.924927 1807.578735,1838.098511 
	C1855.647217,1873.370239 1903.247559,1909.303345 1951.915649,1943.726562 
	C1987.255737,1968.722778 2023.932007,1991.838135 2060.145752,2015.588989 
	C2115.368896,2051.807861 2172.327637,2084.960938 2232.468018,2112.453613 
	C2272.587158,2130.793457 2313.693115,2146.028564 2357.493408,2153.021240 
	C2380.305664,2156.663330 2403.223389,2157.858154 2426.161133,2155.013672 
	C2466.868652,2149.966309 2502.734131,2133.110107 2535.383057,2108.886475 
	C2574.915039,2079.556152 2606.351562,2042.638184 2634.163818,2002.447876 
	C2664.575928,1958.500366 2689.863770,1911.661255 2712.650879,1863.358398 
	C2740.872070,1803.536377 2763.833496,1741.877441 2780.179443,1677.758545 
	C2792.034180,1631.257080 2801.260010,1584.234741 2807.514404,1536.681519 
	C2810.981201,1510.322266 2814.382568,1483.822388 2815.342285,1457.296387 
	C2816.799072,1417.018188 2816.645752,1376.655396 2816.153564,1336.341064 
	C2815.768799,1304.816650 2810.170654,1274.025391 2797.105957,1245.060425 
	C2786.482910,1221.509521 2770.912842,1201.933838 2748.961426,1187.725586 
	C2726.253662,1173.027832 2700.985107,1166.579956 2674.451172,1164.372192 
	C2634.685791,1161.063599 2596.098145,1167.127686 2558.406494,1179.737671 
	C2519.504883,1192.752197 2481.565430,1208.201416 2444.548096,1225.812622 
	C2394.926758,1249.420044 2344.970459,1272.441772 2298.698730,1302.445068 
	C2255.938965,1330.170898 2212.264404,1356.595337 2170.599854,1385.879395 
	C2065.405762,1459.815552 1961.118408,1535.041992 1856.459839,1609.740723 
	C1847.007568,1616.487061 1837.499512,1623.155151 1827.517212,1630.212891 
	C1820.113159,1624.900635 1813.129517,1619.869995 1806.125366,1614.868164 
	C1765.734497,1586.023560 1725.028198,1557.609375 1685.017334,1528.247437 
	C1623.783447,1483.311035 1563.020142,1437.733521 1502.070923,1392.409424 
	C1385.783447,1305.934082 1269.533813,1219.407837 1153.203247,1132.990356 
	C1126.197388,1112.928833 1099.477295,1092.410767 1071.635498,1073.566040 
	C1041.305908,1053.037231 1010.010437,1033.908081 978.799988,1014.715149 
	C933.687622,986.973389 888.686646,958.969788 840.587341,936.514709 
	C806.829834,920.755188 771.679626,909.447327 734.192322,907.868347 
	C704.905823,906.634766 675.642944,908.312256 646.472656,911.591187 
	C609.864624,915.706055 574.177429,923.333618 540.363892,938.347778 
	C509.841644,951.900513 484.539001,971.844788 465.916718,999.877014 
	C451.002197,1022.327820 441.046753,1046.913208 434.167358,1072.839355 
	C425.592590,1105.154785 421.219208,1138.144287 419.980255,1171.457764 
	C418.543091,1210.100952 419.546967,1248.602173 427.176514,1286.827637 
	C438.229828,1342.206543 455.007599,1395.854492 474.275208,1448.774170 
	C512.082520,1552.614380 559.978638,1651.835327 612.427429,1748.962524 
	C646.629761,1812.300171 682.851868,1874.447632 721.484741,1935.176392 
	C749.914429,1979.866333 778.777954,2024.280273 807.302612,2068.910156 
	C810.754700,2074.311523 815.049622,2077.171143 821.333923,2078.889893 
	C836.402039,2083.011230 851.140381,2088.323730 866.102051,2092.857910 
	C870.803223,2094.282471 875.772888,2095.400635 880.652283,2095.543701 
	C893.307678,2095.914795 905.988831,2095.912354 918.643311,2095.524170 
	C922.800293,2095.396973 927.400085,2094.493408 930.952332,2092.465088 
	C947.418274,2083.061768 964.413879,2074.428711 980.081970,2061.096436 
z"/>
<path fill="#000014" opacity="1.000000" stroke="none" 
	d="
M979.498291,2061.509766 
	C964.413879,2074.428711 947.418274,2083.061768 930.952332,2092.465088 
	C927.400085,2094.493408 922.800293,2095.396973 918.643311,2095.524170 
	C905.988831,2095.912354 893.307678,2095.914795 880.652283,2095.543701 
	C875.772888,2095.400635 870.803223,2094.282471 866.102051,2092.857910 
	C851.140381,2088.323730 836.402039,2083.011230 821.333923,2078.889893 
	C815.049622,2077.171143 810.754700,2074.311523 807.302612,2068.910156 
	C778.777954,2024.280273 749.914429,1979.866333 721.484741,1935.176392 
	C682.851868,1874.447632 646.629761,1812.300171 612.427429,1748.962524 
	C559.978638,1651.835327 512.082520,1552.614380 474.275208,1448.774170 
	C455.007599,1395.854492 438.229828,1342.206543 427.176514,1286.827637 
	C419.546967,1248.602173 418.543091,1210.100952 419.980255,1171.457764 
	C421.219208,1138.144287 425.592590,1105.154785 434.167358,1072.839355 
	C441.046753,1046.913208 451.002197,1022.327820 465.916718,999.877014 
	C484.539001,971.844788 509.841644,951.900513 540.363892,938.347778 
	C574.177429,923.333618 609.864624,915.706055 646.472656,911.591187 
	C675.642944,908.312256 704.905823,906.634766 734.192322,907.868347 
	C771.679626,909.447327 806.829834,920.755188 840.587341,936.514709 
	C888.686646,958.969788 933.687622,986.973389 978.799988,1014.715149 
	C1010.010437,1033.908081 1041.305908,1053.037231 1071.635498,1073.566040 
	C1099.477295,1092.410767 1126.197388,1112.928833 1153.203247,1132.990356 
	C1269.533813,1219.407837 1385.783447,1305.934082 1502.070923,1392.409424 
	C1563.020142,1437.733521 1623.783447,1483.311035 1685.017334,1528.247437 
	C1725.028198,1557.609375 1765.734497,1586.023560 1806.125366,1614.868164 
	C1813.129517,1619.869995 1820.113159,1624.900635 1827.517212,1630.212891 
	C1837.499512,1623.155151 1847.007568,1616.487061 1856.459839,1609.740723 
	C1961.118408,1535.041992 2065.405762,1459.815552 2170.599854,1385.879395 
	C2212.264404,1356.595337 2255.938965,1330.170898 2298.698730,1302.445068 
	C2344.970459,1272.441772 2394.926758,1249.420044 2444.548096,1225.812622 
	C2481.565430,1208.201416 2519.504883,1192.752197 2558.406494,1179.737671 
	C2596.098145,1167.127686 2634.685791,1161.063599 2674.451172,1164.372192 
	C2700.985107,1166.579956 2726.253662,1173.027832 2748.961426,1187.725586 
	C2770.912842,1201.933838 2786.482910,1221.509521 2797.105957,1245.060425 
	C2810.170654,1274.025391 2815.768799,1304.816650 2816.153564,1336.341064 
	C2816.645752,1376.655396 2816.799072,1417.018188 2815.342285,1457.296387 
	C2814.382568,1483.822388 2810.981201,1510.322266 2807.514404,1536.681519 
	C2801.260010,1584.234741 2792.034180,1631.257080 2780.179443,1677.758545 
	C2763.833496,1741.877441 2740.872070,1803.536377 2712.650879,1863.358398 
	C2689.863770,1911.661255 2664.575928,1958.500366 2634.163818,2002.447876 
	C2606.351562,2042.638184 2574.915039,2079.556152 2535.383057,2108.886475 
	C2502.734131,2133.110107 2466.868652,2149.966309 2426.161133,2155.013672 
	C2403.223389,2157.858154 2380.305664,2156.663330 2357.493408,2153.021240 
	C2313.693115,2146.028564 2272.587158,2130.793457 2232.468018,2112.453613 
	C2172.327637,2084.960938 2115.368896,2051.807861 2060.145752,2015.588989 
	C2023.932007,1991.838135 1987.255737,1968.722778 1951.915649,1943.726562 
	C1903.247559,1909.303345 1855.647217,1873.370239 1807.578735,1838.098511 
	C1805.979370,1836.924927 1804.264038,1835.909302 1801.909790,1834.365479 
	C1799.334839,1836.085571 1796.575439,1837.804321 1793.946655,1839.703491 
	C1739.637817,1878.937866 1688.120605,1921.649902 1637.310547,1965.255737 
	C1600.424438,1996.911987 1563.120117,2028.083618 1526.415527,2059.947266 
	C1502.792725,2080.454590 1480.046753,2101.968262 1456.681152,2122.776123 
	C1416.621948,2158.450195 1378.000122,2195.623535 1339.964233,2233.430664 
	C1325.559937,2247.748291 1311.034790,2261.992432 1295.849487,2275.463867 
	C1277.436279,2291.799072 1258.319702,2307.345459 1239.349243,2323.042236 
	C1237.214600,2324.808594 1234.130981,2325.994873 1231.354980,2326.320312 
	C1219.809692,2327.673584 1208.233154,2329.093506 1196.631348,2329.544678 
	C1182.652832,2330.088135 1168.621338,2330.088867 1154.641724,2329.559326 
	C1140.040527,2329.006592 1125.486572,2327.153809 1110.885376,2326.671143 
	C1105.069092,2326.478760 1101.708496,2323.707520 1098.407104,2319.850586 
	C1077.840332,2295.822754 1057.260498,2271.806396 1036.688354,2247.782959 
	C1035.822144,2246.771240 1035.124146,2245.571533 1034.121704,2244.727783 
	C1027.785156,2239.395996 1027.365967,2233.970215 1031.325806,2226.382812 
	C1039.792480,2210.159668 1047.149536,2193.353516 1054.812866,2176.717773 
	C1057.246216,2171.435547 1060.640137,2167.422852 1065.523682,2164.016602 
	C1132.187012,2117.516602 1198.965088,2071.174561 1265.208618,2024.081543 
	C1346.383545,1966.373901 1426.913574,1907.759766 1508.048584,1849.996094 
	C1560.416992,1812.713013 1613.373535,1776.256348 1666.056641,1739.414917 
	C1669.857056,1736.757446 1673.574829,1733.981812 1678.414917,1730.476074 
	C1675.079468,1727.685913 1672.459717,1725.342529 1669.686157,1723.197754 
	C1640.175659,1700.378418 1609.862793,1678.518066 1581.304565,1654.565186 
	C1543.491577,1622.849976 1503.656982,1593.843628 1464.529907,1563.886719 
	C1370.901123,1492.201538 1276.998779,1420.873169 1183.430786,1349.109131 
	C1114.713257,1296.405029 1046.524902,1243.010620 977.750732,1190.381348 
	C946.537476,1166.495361 914.692139,1143.380005 880.455566,1123.878052 
	C847.324707,1105.005859 811.789001,1093.613037 773.788025,1089.501221 
	C762.020630,1088.227905 750.525757,1088.306885 739.083313,1090.693604 
	C713.656250,1095.997192 696.202271,1111.303223 686.043823,1134.869751 
	C678.051636,1153.410767 675.345398,1173.084351 673.423828,1193.135010 
	C670.579529,1222.814453 677.324402,1250.848389 686.506287,1278.285767 
	C699.076904,1315.849121 712.472046,1353.189453 727.080627,1390.003662 
	C742.732788,1429.447754 764.656372,1465.744873 787.541870,1501.394043 
	C832.562500,1571.523193 881.455872,1638.951538 930.989197,1705.905640 
	C950.988525,1732.938599 972.444214,1758.892090 993.129028,1785.421143 
	C999.679260,1793.822266 1005.759399,1802.588867 1012.268127,1811.023438 
	C1021.613586,1823.134155 1030.851074,1835.351685 1040.742065,1847.008057 
	C1045.549927,1852.673706 1047.882935,1858.273193 1047.823975,1865.829102 
	C1047.504761,1906.825439 1047.486450,1947.827271 1047.832397,1988.823242 
	C1047.899902,1996.827637 1045.318970,2002.402832 1039.739502,2008.035034 
	C1020.956543,2026.995850 1001.771240,2045.432983 979.498291,2061.509766 
M2271.105469,1863.824463 
	C2298.104980,1871.017334 2324.939941,1878.928955 2352.158447,1885.165405 
	C2372.281006,1889.776001 2392.977295,1891.335205 2413.682617,1888.914429 
	C2448.576660,1884.834961 2478.629883,1869.747559 2505.062744,1847.275757 
	C2550.606201,1808.557251 2581.840088,1759.164917 2608.154541,1706.372559 
	C2616.609619,1689.409546 2623.640625,1671.720093 2630.952148,1654.208252 
	C2638.511475,1636.101929 2646.934814,1618.205078 2652.592041,1599.494385 
	C2659.610596,1576.282471 2664.846924,1552.463501 2669.627686,1528.660645 
	C2675.395508,1499.943970 2679.521484,1470.968262 2677.776123,1441.450562 
	C2674.185059,1380.727295 2616.014648,1327.141602 2547.478516,1343.073242 
	C2498.930664,1354.358276 2453.572754,1372.093018 2412.160889,1400.213379 
	C2372.494385,1427.148804 2332.127197,1453.057373 2291.930420,1479.205933 
	C2249.502930,1506.805786 2206.443604,1533.423096 2165.551270,1563.361328 
	C2138.153320,1583.420044 2110.082520,1602.564087 2082.200928,1621.956421 
	C2069.632812,1630.697632 2056.275635,1638.376709 2044.179932,1647.708618 
	C2017.561890,1668.244507 1991.503418,1689.506592 1965.264771,1710.532349 
	C1962.822266,1712.489624 1960.722046,1714.873901 1957.737305,1717.762085 
	C1966.978271,1722.779541 1975.095459,1727.260376 1983.278442,1731.617432 
	C2022.662842,1752.587769 2061.614014,1774.434448 2101.571045,1794.251709 
	C2155.904541,1821.199463 2212.121094,1843.881226 2271.105469,1863.824463 
z"/>
<path fill="#4C6971" opacity="1.000000" stroke="none" 
	d="
M2270.342529,1863.608887 
	C2212.121094,1843.881226 2155.904541,1821.199463 2101.571045,1794.251709 
	C2061.614014,1774.434448 2022.662842,1752.587769 1983.278442,1731.617432 
	C1975.095459,1727.260376 1966.978271,1722.779541 1957.737305,1717.762085 
	C1960.722046,1714.873901 1962.822266,1712.489624 1965.264771,1710.532349 
	C1991.503418,1689.506592 2017.561890,1668.244507 2044.179932,1647.708618 
	C2056.275635,1638.376709 2069.632812,1630.697632 2082.200928,1621.956421 
	C2110.082520,1602.564087 2138.153320,1583.420044 2165.551270,1563.361328 
	C2206.443604,1533.423096 2249.502930,1506.805786 2291.930420,1479.205933 
	C2332.127197,1453.057373 2372.494385,1427.148804 2412.160889,1400.213379 
	C2453.572754,1372.093018 2498.930664,1354.358276 2547.478516,1343.073242 
	C2616.014648,1327.141602 2674.185059,1380.727295 2677.776123,1441.450562 
	C2679.521484,1470.968262 2675.395508,1499.943970 2669.627686,1528.660645 
	C2664.846924,1552.463501 2659.610596,1576.282471 2652.592041,1599.494385 
	C2646.934814,1618.205078 2638.511475,1636.101929 2630.952148,1654.208252 
	C2623.640625,1671.720093 2616.609619,1689.409546 2608.154541,1706.372559 
	C2581.840088,1759.164917 2550.606201,1808.557251 2505.062744,1847.275757 
	C2478.629883,1869.747559 2448.576660,1884.834961 2413.682617,1888.914429 
	C2392.977295,1891.335205 2372.281006,1889.776001 2352.158447,1885.165405 
	C2324.939941,1878.928955 2298.104980,1871.017334 2270.342529,1863.608887 
z"/>
</svg>